<svg xmlns="http://www.w3.org/2000/svg" xmlns:xlink="http://www.w3.org/1999/xlink" width="431" zoomAndPan="magnify" viewBox="0 0 323.25 75.749997" height="101" preserveAspectRatio="xMidYMid meet" version="1.0"><defs><g/><clipPath id="0a917e3b01"><path d="M 7 8 L 53.234375 8 L 53.234375 67 L 7 67 Z M 7 8 " clip-rule="nonzero"/></clipPath><clipPath id="80d6c0f1a9"><path d="M 0.15625 15 L 44 15 L 44 74 L 0.15625 74 Z M 0.15625 15 " clip-rule="nonzero"/></clipPath><clipPath id="3c34bd85f3"><path d="M 34 0.925781 L 50 0.925781 L 50 14 L 34 14 Z M 34 0.925781 " clip-rule="nonzero"/></clipPath></defs><g clip-path="url(#0a917e3b01)"><path fill="#00bf63" d="M 34.101562 27.402344 L 34.109375 27.398438 C 34.101562 27.402344 35.789062 26.65625 35.789062 26.65625 C 35.128906 26.246094 34.292969 25.835938 33.234375 25.472656 C 33.234375 25.472656 34.90625 25.554688 36.894531 26.167969 L 40.226562 24.691406 C 39.515625 24.195312 38.558594 23.6875 37.269531 23.246094 C 37.269531 23.246094 39.273438 23.34375 41.503906 24.128906 L 44.117188 22.972656 C 43.378906 22.402344 42.324219 21.796875 40.828125 21.285156 C 40.828125 21.285156 43.125 21.394531 45.539062 22.34375 L 51.140625 19.867188 C 42.328125 16.023438 35.984375 20.441406 32.339844 24.542969 C 34.148438 20.484375 35.6875 13.613281 29.105469 8.324219 L 29.296875 11.21875 C 30.679688 12.507812 31.488281 13.886719 31.488281 13.886719 C 30.699219 13.140625 29.984375 12.652344 29.371094 12.332031 L 29.5625 15.152344 C 31.039062 16.484375 31.90625 17.964844 31.90625 17.964844 C 31.054688 17.15625 30.285156 16.648438 29.640625 16.332031 L 29.816406 18.988281 C 31.089844 20.226562 31.832031 21.488281 31.832031 21.488281 C 31.117188 20.8125 30.460938 20.34375 29.886719 20.023438 L 30.054688 22.574219 C 30.832031 23.476562 31.269531 24.21875 31.269531 24.21875 C 30.859375 23.832031 30.46875 23.511719 30.101562 23.25 L 30.183594 24.449219 C 27.847656 19.464844 22.960938 13.269531 13.285156 14.5625 L 17.992188 18.484375 C 20.574219 18.234375 22.8125 18.757812 22.8125 18.757812 C 21.230469 18.84375 20.050781 19.132812 19.1875 19.480469 L 21.378906 21.308594 C 23.742188 21.167969 25.691406 21.625 25.691406 21.625 C 24.335938 21.695312 23.273438 21.921875 22.453125 22.203125 L 25.25 24.535156 C 27.332031 24.492188 28.960938 24.875 28.960938 24.875 C 27.84375 24.933594 26.925781 25.097656 26.179688 25.308594 C 26.179688 25.308594 27.597656 26.492188 27.589844 26.484375 L 27.597656 26.492188 C 22.601562 23.730469 14.515625 21.359375 7.144531 28.59375 L 10.871094 28.785156 C 12.726562 27.21875 14.605469 26.394531 14.605469 26.394531 C 13.539062 27.289062 12.804688 28.125 12.300781 28.859375 L 15.933594 29.046875 C 17.855469 27.363281 19.878906 26.476562 19.878906 26.476562 C 18.71875 27.445312 17.953125 28.347656 17.449219 29.125 L 20.867188 29.300781 C 22.640625 27.859375 24.363281 27.105469 24.363281 27.105469 C 23.390625 27.917969 22.695312 28.683594 22.199219 29.367188 L 25.480469 29.539062 C 26.753906 28.683594 27.765625 28.238281 27.765625 28.238281 C 27.207031 28.703125 26.578125 29.59375 26.578125 29.59375 C 21.878906 30.046875 15.835938 32.222656 13.898438 40.0625 L 16.65625 38.554688 C 17.292969 36.609375 18.277344 35.1875 18.277344 35.1875 C 17.90625 36.300781 17.746094 37.226562 17.710938 37.976562 L 20.398438 36.503906 C 21.03125 34.449219 22.089844 32.917969 22.089844 32.917969 C 21.6875 34.125 21.539062 35.109375 21.519531 35.890625 L 24.046875 34.507812 C 24.683594 32.691406 25.585938 31.386719 25.585938 31.386719 C 25.25 32.398438 25.089844 33.253906 25.035156 33.964844 L 27.464844 32.636719 C 27.996094 31.460938 28.527344 30.695312 28.527344 30.695312 C 28.332031 31.277344 28.199219 31.804688 28.109375 32.285156 L 29.332031 31.613281 C 27.886719 37.9375 27.550781 50.027344 10.808594 57.09375 L 19.859375 66.300781 C 31.09375 52.621094 30.675781 38.328125 31.027344 31.851562 L 33.152344 33.953125 C 33.273438 33.289062 33.339844 32.484375 33.296875 31.507812 C 33.296875 31.507812 33.765625 32.886719 33.902344 34.691406 L 36.15625 36.921875 C 36.332031 36.1875 36.4375 35.25 36.386719 34.066406 C 36.386719 34.066406 36.945312 35.71875 37.019531 37.773438 L 38.789062 39.519531 C 39.015625 38.742188 39.167969 37.699219 39.109375 36.320312 C 39.109375 36.320312 39.75 38.214844 39.75 40.472656 L 43.542969 44.21875 C 43.835938 36.144531 38.621094 32.390625 34.230469 30.664062 L 38.5 31.652344 C 38.210938 30.855469 37.753906 29.929688 37.042969 28.882812 C 37.042969 28.882812 38.488281 30.082031 39.800781 31.953125 L 43.132812 32.722656 C 42.863281 31.835938 42.375 30.757812 41.527344 29.511719 C 41.527344 29.511719 43.230469 30.917969 44.613281 33.066406 L 48.15625 33.882812 C 47.875 33.039062 47.398438 32.03125 46.617188 30.878906 C 46.617188 30.878906 48.199219 32.191406 49.550781 34.207031 L 53.1875 35.046875 C 48.089844 26.066406 39.664062 26.121094 34.101562 27.402344 " fill-opacity="1" fill-rule="nonzero"/></g><path fill="#000000" d="M 26.164062 16.578125 C 26.261719 16.664062 26.355469 16.746094 26.453125 16.828125 C 27.046875 16.925781 27.628906 17.046875 28.207031 17.195312 L 27.949219 13.324219 C 26.457031 13.023438 24.910156 12.863281 23.328125 12.863281 C 21.921875 12.863281 20.546875 12.988281 19.210938 13.230469 C 21.785156 13.742188 24.113281 14.863281 26.164062 16.578125 " fill-opacity="1" fill-rule="nonzero"/><path fill="#000000" d="M 38.207031 18.273438 C 37.292969 17.507812 36.320312 16.808594 35.292969 16.1875 C 35.316406 16.386719 35.335938 16.585938 35.351562 16.785156 C 35.429688 17.820312 35.390625 18.875 35.238281 19.957031 C 36.199219 19.285156 37.191406 18.722656 38.207031 18.273438 " fill-opacity="1" fill-rule="nonzero"/><path fill="#000000" d="M 45.308594 34.753906 L 42.691406 34.148438 C 42.734375 34.578125 42.761719 35.011719 42.773438 35.445312 C 44.355469 37.875 45.113281 40.753906 45.035156 44.027344 C 45.957031 41.335938 46.5 38.640625 46.5 36.035156 C 46.5 35.695312 46.492188 35.359375 46.476562 35.023438 L 45.308594 34.753906 " fill-opacity="1" fill-rule="nonzero"/><g clip-path="url(#80d6c0f1a9)"><path fill="#000000" d="M 41.125 43.917969 C 39.390625 48.449219 36.316406 53.546875 32 59.011719 C 28.746094 63.125 25.480469 66.558594 23.332031 68.699219 C 21.160156 66.539062 17.859375 63.066406 14.589844 58.925781 C 7.582031 50.035156 3.875 42.117188 3.875 36.035156 C 3.875 30.839844 5.898438 25.953125 9.574219 22.277344 C 11.28125 20.566406 13.257812 19.214844 15.398438 18.257812 L 12.285156 15.660156 C 5.0625 19.585938 0.15625 27.238281 0.15625 36.035156 C 0.15625 53.03125 23.328125 73.847656 23.328125 73.847656 C 23.328125 73.847656 37.984375 60.683594 43.984375 46.746094 L 41.125 43.917969 " fill-opacity="1" fill-rule="nonzero"/></g><g clip-path="url(#3c34bd85f3)"><path fill="#000000" d="M 49.253906 4.53125 C 49.058594 3.992188 47.132812 4.179688 44.800781 4.929688 L 42.851562 3.410156 C 43.398438 3.046875 43.496094 2.714844 43.363281 2.449219 C 43.203125 2.132812 42.769531 2.03125 41.894531 2.476562 C 41.851562 2.496094 41.800781 2.523438 41.75 2.550781 L 39.683594 0.933594 L 38.253906 1.449219 L 40.015625 3.664062 C 39.453125 4.082031 39.027344 4.472656 39.101562 4.621094 C 39.1875 4.785156 39.847656 4.632812 40.589844 4.386719 L 41.890625 6.027344 C 40.558594 6.578125 39.007812 7.257812 37.667969 7.898438 L 35.128906 5.777344 L 34.472656 6.015625 L 35.9375 8.765625 C 35.003906 9.273438 34.40625 9.675781 34.472656 9.855469 C 34.535156 10.035156 35.253906 9.96875 36.296875 9.761719 L 37.210938 12.464844 L 37.867188 12.230469 L 38.183594 9.328125 C 39.621094 8.964844 41.25 8.5 42.628906 8.074219 L 43.074219 9.8125 C 42.496094 10.066406 42.066406 10.320312 42.101562 10.472656 C 42.140625 10.625 42.644531 10.648438 43.277344 10.609375 L 43.984375 13.378906 L 45.410156 12.863281 L 45.480469 10.300781 C 45.527344 10.289062 45.574219 10.28125 45.617188 10.269531 C 46.570312 10.03125 46.828125 9.671875 46.742188 9.328125 C 46.664062 9.007812 46.320312 8.8125 45.515625 8.972656 L 45.566406 7.066406 C 47.84375 6.152344 49.445312 5.070312 49.253906 4.53125 " fill-opacity="1" fill-rule="nonzero"/></g><g fill="#000000" fill-opacity="1"><g transform="translate(69.588526, 48.109352)"><g><path d="M 17.9375 -16.828125 C 16.726562 -17.566406 15.453125 -18.148438 14.109375 -18.578125 C 12.765625 -19.015625 11.617188 -19.234375 10.671875 -19.234375 C 9.753906 -19.234375 9.03125 -19.066406 8.5 -18.734375 C 7.96875 -18.398438 7.703125 -17.910156 7.703125 -17.265625 C 7.703125 -16.441406 8.082031 -15.8125 8.84375 -15.375 C 9.613281 -14.945312 10.796875 -14.5 12.390625 -14.03125 C 13.992188 -13.5625 15.3125 -13.09375 16.34375 -12.625 C 17.375 -12.164062 18.253906 -11.46875 18.984375 -10.53125 C 19.722656 -9.59375 20.09375 -8.359375 20.09375 -6.828125 C 20.09375 -5.335938 19.695312 -4.050781 18.90625 -2.96875 C 18.125 -1.894531 17.039062 -1.082031 15.65625 -0.53125 C 14.28125 0.0195312 12.71875 0.296875 10.96875 0.296875 C 9.070312 0.296875 7.210938 -0.0351562 5.390625 -0.703125 C 3.578125 -1.367188 2.003906 -2.28125 0.671875 -3.4375 L 2.765625 -7.734375 C 3.941406 -6.660156 5.296875 -5.800781 6.828125 -5.15625 C 8.359375 -4.519531 9.757812 -4.203125 11.03125 -4.203125 C 12.125 -4.203125 12.972656 -4.398438 13.578125 -4.796875 C 14.191406 -5.203125 14.5 -5.78125 14.5 -6.53125 C 14.5 -7.132812 14.289062 -7.628906 13.875 -8.015625 C 13.46875 -8.398438 12.945312 -8.710938 12.3125 -8.953125 C 11.675781 -9.203125 10.804688 -9.484375 9.703125 -9.796875 C 8.097656 -10.242188 6.789062 -10.6875 5.78125 -11.125 C 4.769531 -11.570312 3.894531 -12.25 3.15625 -13.15625 C 2.425781 -14.070312 2.0625 -15.285156 2.0625 -16.796875 C 2.0625 -18.191406 2.4375 -19.414062 3.1875 -20.46875 C 3.945312 -21.53125 5.003906 -22.34375 6.359375 -22.90625 C 7.722656 -23.476562 9.300781 -23.765625 11.09375 -23.765625 C 12.695312 -23.765625 14.273438 -23.53125 15.828125 -23.0625 C 17.378906 -22.59375 18.757812 -21.972656 19.96875 -21.203125 Z M 17.9375 -16.828125 "/></g></g></g><g fill="#000000" fill-opacity="1"><g transform="translate(93.386731, 48.109352)"><g><path d="M 2.5625 0 L 2.5625 -23.328125 L 8.4375 -23.328125 L 15.703125 -9 L 22.890625 -23.328125 L 28.734375 -23.328125 L 28.734375 0 L 24 0 L 24 -15.765625 L 17.359375 -2.359375 L 13.96875 -2.359375 L 7.296875 -15.765625 L 7.296875 0 Z M 2.5625 0 "/></g></g></g><g fill="#000000" fill-opacity="1"><g transform="translate(127.284023, 48.109352)"><g><path d="M 25.421875 0 L 19.796875 0 L 17.96875 -4.53125 L 7.171875 -4.53125 L 5.328125 0 L -0.09375 0 L 10.03125 -23.328125 L 15.46875 -23.328125 Z M 12.59375 -17.828125 L 8.90625 -8.765625 L 16.265625 -8.765625 Z M 12.59375 -17.828125 "/></g></g></g><g fill="#000000" fill-opacity="1"><g transform="translate(155.148528, 48.109352)"><g><path d="M 22.859375 0 L 16.890625 0 L 13.203125 -6.671875 L 7.828125 -6.671875 L 7.828125 0 L 2.5625 0 L 2.5625 -23.328125 L 12.703125 -23.328125 C 15.742188 -23.328125 18.097656 -22.617188 19.765625 -21.203125 C 21.429688 -19.796875 22.265625 -17.804688 22.265625 -15.234375 C 22.265625 -13.429688 21.890625 -11.890625 21.140625 -10.609375 C 20.398438 -9.335938 19.316406 -8.367188 17.890625 -7.703125 Z M 7.828125 -18.96875 L 7.828125 -11.0625 L 12.703125 -11.0625 C 14.160156 -11.0625 15.285156 -11.398438 16.078125 -12.078125 C 16.867188 -12.753906 17.265625 -13.75 17.265625 -15.0625 C 17.265625 -16.351562 16.867188 -17.328125 16.078125 -17.984375 C 15.285156 -18.640625 14.160156 -18.96875 12.703125 -18.96875 Z M 7.828125 -18.96875 "/></g></g></g><g fill="#000000" fill-opacity="1"><g transform="translate(181.846472, 48.109352)"><g><path d="M 0.265625 -18.859375 L 0.265625 -23.328125 L 19.765625 -23.328125 L 19.765625 -18.859375 L 12.625 -18.859375 L 12.625 0 L 7.359375 0 L 7.359375 -18.859375 Z M 0.265625 -18.859375 "/></g></g></g><g fill="#000000" fill-opacity="1"><g transform="translate(204.444789, 48.109352)"><g/></g></g><g fill="#000000" fill-opacity="1"><g transform="translate(216.010765, 48.109352)"><g><path d="M 0.265625 -18.859375 L 0.265625 -23.328125 L 19.765625 -23.328125 L 19.765625 -18.859375 L 12.625 -18.859375 L 12.625 0 L 7.359375 0 L 7.359375 -18.859375 Z M 0.265625 -18.859375 "/></g></g></g><g fill="#000000" fill-opacity="1"><g transform="translate(238.609082, 48.109352)"><g><path d="M 22.859375 0 L 16.890625 0 L 13.203125 -6.671875 L 7.828125 -6.671875 L 7.828125 0 L 2.5625 0 L 2.5625 -23.328125 L 12.703125 -23.328125 C 15.742188 -23.328125 18.097656 -22.617188 19.765625 -21.203125 C 21.429688 -19.796875 22.265625 -17.804688 22.265625 -15.234375 C 22.265625 -13.429688 21.890625 -11.890625 21.140625 -10.609375 C 20.398438 -9.335938 19.316406 -8.367188 17.890625 -7.703125 Z M 7.828125 -18.96875 L 7.828125 -11.0625 L 12.703125 -11.0625 C 14.160156 -11.0625 15.285156 -11.398438 16.078125 -12.078125 C 16.867188 -12.753906 17.265625 -13.75 17.265625 -15.0625 C 17.265625 -16.351562 16.867188 -17.328125 16.078125 -17.984375 C 15.285156 -18.640625 14.160156 -18.96875 12.703125 -18.96875 Z M 7.828125 -18.96875 "/></g></g></g><g fill="#000000" fill-opacity="1"><g transform="translate(265.307026, 48.109352)"><g><path d="M 2.5625 0 L 2.5625 -23.328125 L 7.828125 -23.328125 L 7.828125 0 Z M 2.5625 0 "/></g></g></g><g fill="#000000" fill-opacity="1"><g transform="translate(278.306208, 48.109352)"><g><path d="M 12.46875 -23.328125 C 15.445312 -23.328125 17.742188 -22.617188 19.359375 -21.203125 C 20.984375 -19.796875 21.796875 -17.804688 21.796875 -15.234375 C 21.796875 -12.523438 20.976562 -10.421875 19.34375 -8.921875 C 17.707031 -7.421875 15.414062 -6.671875 12.46875 -6.671875 L 7.828125 -6.671875 L 7.828125 0 L 2.5625 0 L 2.5625 -23.328125 Z M 12.203125 -11.0625 C 13.691406 -11.0625 14.828125 -11.398438 15.609375 -12.078125 C 16.398438 -12.753906 16.796875 -13.75 16.796875 -15.0625 C 16.796875 -16.351562 16.398438 -17.328125 15.609375 -17.984375 C 14.828125 -18.640625 13.691406 -18.96875 12.203125 -18.96875 L 7.828125 -18.96875 L 7.828125 -11.0625 Z M 12.203125 -11.0625 "/></g></g></g></svg>