<svg xmlns="http://www.w3.org/2000/svg" xmlns:xlink="http://www.w3.org/1999/xlink" width="451" zoomAndPan="magnify" viewBox="0 0 338.25 83.249999" height="111" preserveAspectRatio="xMidYMid meet" version="1.0"><defs><g/><clipPath id="6e3d0f01b7"><path d="M 8 7 L 53.914062 7 L 53.914062 65 L 8 65 Z M 8 7 " clip-rule="nonzero"/></clipPath><clipPath id="e954f91de5"><path d="M 1.136719 14 L 45 14 L 45 72.101562 L 1.136719 72.101562 Z M 1.136719 14 " clip-rule="nonzero"/></clipPath></defs><g clip-path="url(#6e3d0f01b7)"><path fill="#00bf63" d="M 34.832031 26.28125 L 34.839844 26.277344 C 34.832031 26.28125 36.503906 25.539062 36.503906 25.539062 C 35.851562 25.132812 35.019531 24.726562 33.96875 24.367188 C 33.96875 24.367188 35.628906 24.445312 37.601562 25.054688 L 40.910156 23.589844 C 40.203125 23.097656 39.253906 22.59375 37.976562 22.15625 C 37.976562 22.15625 39.960938 22.25 42.175781 23.03125 L 44.769531 21.882812 C 44.039062 21.316406 42.992188 20.71875 41.503906 20.207031 C 41.503906 20.207031 43.785156 20.316406 46.183594 21.257812 L 51.742188 18.800781 C 42.996094 14.984375 36.699219 19.371094 33.082031 23.441406 C 34.875 19.414062 36.40625 12.589844 29.871094 7.34375 L 30.0625 10.21875 C 31.433594 11.496094 32.234375 12.863281 32.234375 12.863281 C 31.453125 12.125 30.746094 11.640625 30.136719 11.320312 L 30.324219 14.121094 C 31.789062 15.441406 32.652344 16.910156 32.652344 16.910156 C 31.804688 16.113281 31.042969 15.605469 30.402344 15.292969 L 30.578125 17.925781 C 31.84375 19.15625 32.578125 20.410156 32.578125 20.410156 C 31.867188 19.738281 31.21875 19.273438 30.644531 18.957031 L 30.816406 21.488281 C 31.585938 22.382812 32.019531 23.121094 32.019531 23.121094 C 31.609375 22.734375 31.222656 22.417969 30.859375 22.160156 L 30.941406 23.347656 C 28.625 18.402344 23.769531 12.253906 14.167969 13.535156 L 18.839844 17.425781 C 21.402344 17.179688 23.625 17.699219 23.625 17.699219 C 22.054688 17.785156 20.882812 18.074219 20.027344 18.414062 L 22.203125 20.230469 C 24.546875 20.089844 26.484375 20.542969 26.484375 20.542969 C 25.136719 20.617188 24.082031 20.839844 23.265625 21.117188 L 26.046875 23.433594 C 28.113281 23.394531 29.726562 23.773438 29.726562 23.773438 C 28.617188 23.832031 27.707031 23.992188 26.96875 24.203125 C 26.96875 24.203125 28.375 25.375 28.367188 25.371094 L 28.375 25.375 C 23.417969 22.636719 15.386719 20.285156 8.074219 27.464844 L 11.773438 27.652344 C 13.613281 26.097656 15.480469 25.28125 15.480469 25.28125 C 14.421875 26.167969 13.691406 26.996094 13.191406 27.726562 L 16.796875 27.914062 C 18.703125 26.242188 20.710938 25.359375 20.710938 25.359375 C 19.5625 26.320312 18.800781 27.214844 18.300781 27.988281 L 21.691406 28.164062 C 23.453125 26.734375 25.164062 25.984375 25.164062 25.984375 C 24.199219 26.789062 23.511719 27.550781 23.015625 28.230469 L 26.273438 28.398438 C 27.535156 27.550781 28.539062 27.109375 28.539062 27.109375 C 27.988281 27.570312 27.363281 28.457031 27.363281 28.457031 C 22.699219 28.90625 16.699219 31.0625 14.777344 38.847656 L 17.511719 37.347656 C 18.144531 35.417969 19.121094 34.007812 19.121094 34.007812 C 18.753906 35.113281 18.597656 36.03125 18.5625 36.773438 L 21.230469 35.3125 C 21.859375 33.273438 22.910156 31.753906 22.910156 31.753906 C 22.507812 32.953125 22.359375 33.929688 22.34375 34.707031 L 24.851562 33.332031 C 25.484375 31.527344 26.378906 30.234375 26.378906 30.234375 C 26.042969 31.238281 25.882812 32.089844 25.832031 32.796875 L 28.242188 31.476562 C 28.769531 30.308594 29.296875 29.550781 29.296875 29.550781 C 29.105469 30.125 28.96875 30.648438 28.882812 31.125 L 30.09375 30.460938 C 28.660156 36.738281 28.328125 48.734375 11.710938 55.75 L 20.695312 64.890625 C 31.84375 51.3125 31.429688 37.125 31.777344 30.695312 L 33.890625 32.785156 C 34.011719 32.125 34.074219 31.324219 34.03125 30.355469 C 34.03125 30.355469 34.496094 31.722656 34.632812 33.515625 L 36.871094 35.726562 C 37.042969 35 37.148438 34.070312 37.097656 32.894531 C 37.097656 32.894531 37.652344 34.535156 37.726562 36.574219 L 39.480469 38.308594 C 39.707031 37.535156 39.859375 36.5 39.800781 35.132812 C 39.800781 35.132812 40.4375 37.011719 40.4375 39.253906 L 44.199219 42.972656 C 44.492188 34.957031 39.316406 31.234375 34.957031 29.519531 L 39.195312 30.5 C 38.910156 29.710938 38.457031 28.789062 37.75 27.75 C 37.75 27.75 39.1875 28.9375 40.488281 30.796875 L 43.796875 31.5625 C 43.527344 30.683594 43.042969 29.613281 42.203125 28.371094 C 42.203125 28.371094 43.890625 29.769531 45.265625 31.902344 L 48.78125 32.714844 C 48.5 31.875 48.03125 30.875 47.253906 29.734375 C 47.253906 29.734375 48.824219 31.03125 50.164062 33.035156 L 53.773438 33.867188 C 48.714844 24.953125 40.351562 25.007812 34.832031 26.28125 " fill-opacity="1" fill-rule="nonzero"/></g><path fill="#000000" d="M 26.949219 15.539062 C 27.046875 15.621094 27.144531 15.703125 27.238281 15.785156 C 27.828125 15.878906 28.40625 16 28.980469 16.148438 L 28.722656 12.304688 C 27.242188 12.007812 25.707031 11.847656 24.136719 11.847656 C 22.742188 11.847656 21.375 11.972656 20.050781 12.210938 C 22.605469 12.722656 24.917969 13.835938 26.949219 15.539062 " fill-opacity="1" fill-rule="nonzero"/><path fill="#000000" d="M 38.90625 17.21875 C 38 16.457031 37.03125 15.765625 36.015625 15.148438 C 36.039062 15.34375 36.058594 15.542969 36.070312 15.742188 C 36.148438 16.769531 36.109375 17.816406 35.957031 18.886719 C 36.914062 18.222656 37.898438 17.667969 38.90625 17.21875 " fill-opacity="1" fill-rule="nonzero"/><path fill="#000000" d="M 45.953125 33.574219 L 43.359375 32.976562 C 43.398438 33.402344 43.425781 33.832031 43.4375 34.261719 C 45.007812 36.671875 45.761719 39.53125 45.683594 42.785156 C 46.597656 40.109375 47.136719 37.433594 47.136719 34.847656 C 47.136719 34.511719 47.128906 34.175781 47.113281 33.84375 L 45.953125 33.574219 " fill-opacity="1" fill-rule="nonzero"/><g clip-path="url(#e954f91de5)"><path fill="#000000" d="M 41.800781 42.675781 C 40.078125 47.171875 37.03125 52.230469 32.742188 57.652344 C 29.511719 61.738281 26.273438 65.148438 24.140625 67.273438 C 21.988281 65.128906 18.707031 61.679688 15.464844 57.570312 C 8.507812 48.742188 4.828125 40.886719 4.828125 34.847656 C 4.828125 29.691406 6.835938 24.839844 10.484375 21.195312 C 12.179688 19.496094 14.140625 18.152344 16.269531 17.203125 L 13.175781 14.625 C 6.003906 18.519531 1.136719 26.117188 1.136719 34.847656 C 1.136719 51.722656 24.136719 72.382812 24.136719 72.382812 C 24.136719 72.382812 38.683594 59.316406 44.640625 45.480469 L 41.800781 42.675781 " fill-opacity="1" fill-rule="nonzero"/></g><path fill="#000000" d="M 49.867188 3.578125 C 49.675781 3.042969 47.765625 3.230469 45.449219 3.972656 L 43.515625 2.464844 C 44.058594 2.105469 44.15625 1.777344 44.023438 1.511719 C 43.863281 1.199219 43.433594 1.09375 42.566406 1.539062 C 42.523438 1.558594 42.472656 1.585938 42.425781 1.613281 L 40.371094 0.0078125 L 38.953125 0.519531 L 40.699219 2.71875 C 40.140625 3.132812 39.71875 3.519531 39.796875 3.667969 C 39.878906 3.828125 40.535156 3.679688 41.269531 3.433594 L 42.5625 5.0625 C 41.242188 5.609375 39.699219 6.285156 38.371094 6.917969 L 35.851562 4.816406 L 35.199219 5.050781 L 36.652344 7.78125 C 35.722656 8.285156 35.132812 8.6875 35.195312 8.863281 C 35.261719 9.042969 35.972656 8.976562 37.007812 8.769531 L 37.914062 11.453125 L 38.566406 11.21875 L 38.882812 8.339844 C 40.308594 7.980469 41.925781 7.515625 43.292969 7.09375 L 43.734375 8.820312 C 43.164062 9.074219 42.734375 9.328125 42.773438 9.476562 C 42.8125 9.628906 43.308594 9.652344 43.9375 9.613281 L 44.640625 12.359375 L 46.054688 11.847656 L 46.125 9.304688 C 46.171875 9.292969 46.21875 9.285156 46.261719 9.273438 C 47.207031 9.039062 47.464844 8.679688 47.378906 8.339844 C 47.300781 8.023438 46.957031 7.828125 46.160156 7.988281 L 46.210938 6.09375 C 48.472656 5.1875 50.0625 4.113281 49.867188 3.578125 " fill-opacity="1" fill-rule="nonzero"/><g fill="#000000" fill-opacity="1"><g transform="translate(59.288801, 53.012912)"><g><path d="M 19.6875 -18.484375 C 18.375 -19.285156 16.976562 -19.921875 15.5 -20.390625 C 14.019531 -20.867188 12.753906 -21.109375 11.703125 -21.109375 C 10.703125 -21.109375 9.910156 -20.925781 9.328125 -20.5625 C 8.742188 -20.195312 8.453125 -19.660156 8.453125 -18.953125 C 8.453125 -18.046875 8.875 -17.351562 9.71875 -16.875 C 10.5625 -16.40625 11.859375 -15.914062 13.609375 -15.40625 C 15.367188 -14.894531 16.816406 -14.378906 17.953125 -13.859375 C 19.085938 -13.347656 20.054688 -12.582031 20.859375 -11.5625 C 21.660156 -10.539062 22.0625 -9.1875 22.0625 -7.5 C 22.0625 -5.863281 21.628906 -4.453125 20.765625 -3.265625 C 19.898438 -2.085938 18.710938 -1.191406 17.203125 -0.578125 C 15.691406 0.0234375 13.972656 0.328125 12.046875 0.328125 C 9.960938 0.328125 7.921875 -0.0351562 5.921875 -0.765625 C 3.921875 -1.492188 2.191406 -2.492188 0.734375 -3.765625 L 3.03125 -8.484375 C 4.332031 -7.316406 5.820312 -6.378906 7.5 -5.671875 C 9.1875 -4.960938 10.722656 -4.609375 12.109375 -4.609375 C 13.304688 -4.609375 14.238281 -4.828125 14.90625 -5.265625 C 15.582031 -5.703125 15.921875 -6.335938 15.921875 -7.171875 C 15.921875 -7.828125 15.691406 -8.367188 15.234375 -8.796875 C 14.785156 -9.222656 14.210938 -9.570312 13.515625 -9.84375 C 12.828125 -10.113281 11.875 -10.421875 10.65625 -10.765625 C 8.894531 -11.242188 7.457031 -11.726562 6.34375 -12.21875 C 5.238281 -12.707031 4.28125 -13.453125 3.46875 -14.453125 C 2.664062 -15.453125 2.265625 -16.78125 2.265625 -18.4375 C 2.265625 -19.976562 2.675781 -21.328125 3.5 -22.484375 C 4.332031 -23.640625 5.492188 -24.53125 6.984375 -25.15625 C 8.472656 -25.78125 10.207031 -26.09375 12.1875 -26.09375 C 13.945312 -26.09375 15.675781 -25.832031 17.375 -25.3125 C 19.082031 -24.800781 20.597656 -24.125 21.921875 -23.28125 Z M 19.6875 -18.484375 "/></g></g></g><g fill="#000000" fill-opacity="1"><g transform="translate(85.41496, 53.012912)"><g><path d="M 2.8125 0 L 2.8125 -25.609375 L 9.265625 -25.609375 L 17.234375 -9.875 L 25.140625 -25.609375 L 31.546875 -25.609375 L 31.546875 0 L 26.34375 0 L 26.34375 -17.3125 L 19.0625 -2.59375 L 15.328125 -2.59375 L 8.015625 -17.3125 L 8.015625 0 Z M 2.8125 0 "/></g></g></g><g fill="#000000" fill-opacity="1"><g transform="translate(122.628105, 53.012912)"><g><path d="M 27.921875 0 L 21.734375 0 L 19.71875 -4.984375 L 7.875 -4.984375 L 5.859375 0 L -0.109375 0 L 11.015625 -25.609375 L 16.984375 -25.609375 Z M 13.828125 -19.578125 L 9.765625 -9.625 L 17.859375 -9.625 Z M 13.828125 -19.578125 "/></g></g></g><g fill="#000000" fill-opacity="1"><g transform="translate(153.218332, 53.012912)"><g><path d="M 25.109375 0 L 18.546875 0 L 14.484375 -7.3125 L 8.59375 -7.3125 L 8.59375 0 L 2.8125 0 L 2.8125 -25.609375 L 13.9375 -25.609375 C 17.28125 -25.609375 19.863281 -24.832031 21.6875 -23.28125 C 23.519531 -21.738281 24.4375 -19.550781 24.4375 -16.71875 C 24.4375 -14.75 24.03125 -13.0625 23.21875 -11.65625 C 22.40625 -10.25 21.21875 -9.179688 19.65625 -8.453125 Z M 8.59375 -20.828125 L 8.59375 -12.15625 L 13.9375 -12.15625 C 15.550781 -12.15625 16.789062 -12.523438 17.65625 -13.265625 C 18.519531 -14.003906 18.953125 -15.097656 18.953125 -16.546875 C 18.953125 -17.953125 18.519531 -19.015625 17.65625 -19.734375 C 16.789062 -20.460938 15.550781 -20.828125 13.9375 -20.828125 Z M 8.59375 -20.828125 "/></g></g></g><g fill="#000000" fill-opacity="1"><g transform="translate(182.527884, 53.012912)"><g><path d="M 0.296875 -20.71875 L 0.296875 -25.609375 L 21.703125 -25.609375 L 21.703125 -20.71875 L 13.875 -20.71875 L 13.875 0 L 8.09375 0 L 8.09375 -20.71875 Z M 0.296875 -20.71875 "/></g></g></g><g fill="#000000" fill-opacity="1"><g transform="translate(207.336782, 53.012912)"><g/></g></g><g fill="#000000" fill-opacity="1"><g transform="translate(220.034147, 53.012912)"><g><path d="M 0.296875 -20.71875 L 0.296875 -25.609375 L 21.703125 -25.609375 L 21.703125 -20.71875 L 13.875 -20.71875 L 13.875 0 L 8.09375 0 L 8.09375 -20.71875 Z M 0.296875 -20.71875 "/></g></g></g><g fill="#000000" fill-opacity="1"><g transform="translate(244.843046, 53.012912)"><g><path d="M 25.109375 0 L 18.546875 0 L 14.484375 -7.3125 L 8.59375 -7.3125 L 8.59375 0 L 2.8125 0 L 2.8125 -25.609375 L 13.9375 -25.609375 C 17.28125 -25.609375 19.863281 -24.832031 21.6875 -23.28125 C 23.519531 -21.738281 24.4375 -19.550781 24.4375 -16.71875 C 24.4375 -14.75 24.03125 -13.0625 23.21875 -11.65625 C 22.40625 -10.25 21.21875 -9.179688 19.65625 -8.453125 Z M 8.59375 -20.828125 L 8.59375 -12.15625 L 13.9375 -12.15625 C 15.550781 -12.15625 16.789062 -12.523438 17.65625 -13.265625 C 18.519531 -14.003906 18.953125 -15.097656 18.953125 -16.546875 C 18.953125 -17.953125 18.519531 -19.015625 17.65625 -19.734375 C 16.789062 -20.460938 15.550781 -20.828125 13.9375 -20.828125 Z M 8.59375 -20.828125 "/></g></g></g><g fill="#000000" fill-opacity="1"><g transform="translate(274.152598, 53.012912)"><g><path d="M 2.8125 0 L 2.8125 -25.609375 L 8.59375 -25.609375 L 8.59375 0 Z M 2.8125 0 "/></g></g></g><g fill="#000000" fill-opacity="1"><g transform="translate(288.423368, 53.012912)"><g><path d="M 13.6875 -25.609375 C 16.957031 -25.609375 19.484375 -24.832031 21.265625 -23.28125 C 23.046875 -21.738281 23.9375 -19.550781 23.9375 -16.71875 C 23.9375 -13.75 23.035156 -11.4375 21.234375 -9.78125 C 19.441406 -8.132812 16.925781 -7.3125 13.6875 -7.3125 L 8.59375 -7.3125 L 8.59375 0 L 2.8125 0 L 2.8125 -25.609375 Z M 13.390625 -12.15625 C 15.023438 -12.15625 16.273438 -12.523438 17.140625 -13.265625 C 18.003906 -14.003906 18.4375 -15.097656 18.4375 -16.546875 C 18.4375 -17.953125 18.003906 -19.015625 17.140625 -19.734375 C 16.273438 -20.460938 15.023438 -20.828125 13.390625 -20.828125 L 8.59375 -20.828125 L 8.59375 -12.15625 Z M 13.390625 -12.15625 "/></g></g></g></svg>