<svg xmlns="http://www.w3.org/2000/svg" xmlns:xlink="http://www.w3.org/1999/xlink" width="492" zoomAndPan="magnify" viewBox="0 0 369 83.249999" height="111" preserveAspectRatio="xMidYMid meet" version="1.0"><defs><g/><clipPath id="1fa214bb08"><path d="M 196 16 L 229.988281 16 L 229.988281 59 L 196 59 Z M 196 16 " clip-rule="nonzero"/></clipPath><clipPath id="21443a3611"><path d="M 191.335938 21 L 224 21 L 224 63.492188 L 191.335938 63.492188 Z M 191.335938 21 " clip-rule="nonzero"/></clipPath><clipPath id="db11a7798d"><path d="M 216 10.71875 L 228 10.71875 L 228 20 L 216 20 Z M 216 10.71875 " clip-rule="nonzero"/></clipPath></defs><g fill="#000000" fill-opacity="1"><g transform="translate(31.79613, 52.81544)"><g><path d="M 19.6875 -18.484375 C 18.375 -19.285156 16.976562 -19.921875 15.5 -20.390625 C 14.019531 -20.867188 12.753906 -21.109375 11.703125 -21.109375 C 10.703125 -21.109375 9.910156 -20.925781 9.328125 -20.5625 C 8.742188 -20.195312 8.453125 -19.660156 8.453125 -18.953125 C 8.453125 -18.046875 8.875 -17.351562 9.71875 -16.875 C 10.5625 -16.40625 11.859375 -15.914062 13.609375 -15.40625 C 15.367188 -14.894531 16.816406 -14.378906 17.953125 -13.859375 C 19.085938 -13.347656 20.054688 -12.582031 20.859375 -11.5625 C 21.660156 -10.539062 22.0625 -9.1875 22.0625 -7.5 C 22.0625 -5.863281 21.628906 -4.453125 20.765625 -3.265625 C 19.898438 -2.085938 18.710938 -1.191406 17.203125 -0.578125 C 15.691406 0.0234375 13.972656 0.328125 12.046875 0.328125 C 9.960938 0.328125 7.921875 -0.0351562 5.921875 -0.765625 C 3.921875 -1.492188 2.191406 -2.492188 0.734375 -3.765625 L 3.03125 -8.484375 C 4.332031 -7.316406 5.820312 -6.378906 7.5 -5.671875 C 9.1875 -4.960938 10.722656 -4.609375 12.109375 -4.609375 C 13.304688 -4.609375 14.238281 -4.828125 14.90625 -5.265625 C 15.582031 -5.703125 15.921875 -6.335938 15.921875 -7.171875 C 15.921875 -7.828125 15.691406 -8.367188 15.234375 -8.796875 C 14.785156 -9.222656 14.210938 -9.570312 13.515625 -9.84375 C 12.828125 -10.113281 11.875 -10.421875 10.65625 -10.765625 C 8.894531 -11.242188 7.457031 -11.726562 6.34375 -12.21875 C 5.238281 -12.707031 4.28125 -13.453125 3.46875 -14.453125 C 2.664062 -15.453125 2.265625 -16.78125 2.265625 -18.4375 C 2.265625 -19.976562 2.675781 -21.328125 3.5 -22.484375 C 4.332031 -23.640625 5.492188 -24.53125 6.984375 -25.15625 C 8.472656 -25.78125 10.207031 -26.09375 12.1875 -26.09375 C 13.945312 -26.09375 15.675781 -25.832031 17.375 -25.3125 C 19.082031 -24.800781 20.597656 -24.125 21.921875 -23.28125 Z M 19.6875 -18.484375 "/></g></g></g><g fill="#000000" fill-opacity="1"><g transform="translate(57.922289, 52.81544)"><g><path d="M 2.8125 0 L 2.8125 -25.609375 L 9.265625 -25.609375 L 17.234375 -9.875 L 25.140625 -25.609375 L 31.546875 -25.609375 L 31.546875 0 L 26.34375 0 L 26.34375 -17.3125 L 19.0625 -2.59375 L 15.328125 -2.59375 L 8.015625 -17.3125 L 8.015625 0 Z M 2.8125 0 "/></g></g></g><g fill="#000000" fill-opacity="1"><g transform="translate(95.135433, 52.81544)"><g><path d="M 27.921875 0 L 21.734375 0 L 19.71875 -4.984375 L 7.875 -4.984375 L 5.859375 0 L -0.109375 0 L 11.015625 -25.609375 L 16.984375 -25.609375 Z M 13.828125 -19.578125 L 9.765625 -9.625 L 17.859375 -9.625 Z M 13.828125 -19.578125 "/></g></g></g><g fill="#000000" fill-opacity="1"><g transform="translate(125.72566, 52.81544)"><g><path d="M 25.109375 0 L 18.546875 0 L 14.484375 -7.3125 L 8.59375 -7.3125 L 8.59375 0 L 2.8125 0 L 2.8125 -25.609375 L 13.9375 -25.609375 C 17.28125 -25.609375 19.863281 -24.832031 21.6875 -23.28125 C 23.519531 -21.738281 24.4375 -19.550781 24.4375 -16.71875 C 24.4375 -14.75 24.03125 -13.0625 23.21875 -11.65625 C 22.40625 -10.25 21.21875 -9.179688 19.65625 -8.453125 Z M 8.59375 -20.828125 L 8.59375 -12.15625 L 13.9375 -12.15625 C 15.550781 -12.15625 16.789062 -12.523438 17.65625 -13.265625 C 18.519531 -14.003906 18.953125 -15.097656 18.953125 -16.546875 C 18.953125 -17.953125 18.519531 -19.015625 17.65625 -19.734375 C 16.789062 -20.460938 15.550781 -20.828125 13.9375 -20.828125 Z M 8.59375 -20.828125 "/></g></g></g><g fill="#000000" fill-opacity="1"><g transform="translate(155.035213, 52.81544)"><g><path d="M 0.296875 -20.71875 L 0.296875 -25.609375 L 21.703125 -25.609375 L 21.703125 -20.71875 L 13.875 -20.71875 L 13.875 0 L 8.09375 0 L 8.09375 -20.71875 Z M 0.296875 -20.71875 "/></g></g></g><g fill="#000000" fill-opacity="1"><g transform="translate(179.858665, 52.81544)"><g/></g></g><g fill="#000000" fill-opacity="1"><g transform="translate(192.55603, 52.81544)"><g/></g></g><g fill="#000000" fill-opacity="1"><g transform="translate(205.253395, 52.81544)"><g/></g></g><g fill="#000000" fill-opacity="1"><g transform="translate(217.950761, 52.81544)"><g/></g></g><g fill="#000000" fill-opacity="1"><g transform="translate(230.648126, 52.81544)"><g/></g></g><g fill="#000000" fill-opacity="1"><g transform="translate(243.35999, 52.81544)"><g><path d="M 0.296875 -20.71875 L 0.296875 -25.609375 L 21.703125 -25.609375 L 21.703125 -20.71875 L 13.875 -20.71875 L 13.875 0 L 8.09375 0 L 8.09375 -20.71875 Z M 0.296875 -20.71875 "/></g></g></g><g fill="#000000" fill-opacity="1"><g transform="translate(268.168888, 52.81544)"><g><path d="M 25.109375 0 L 18.546875 0 L 14.484375 -7.3125 L 8.59375 -7.3125 L 8.59375 0 L 2.8125 0 L 2.8125 -25.609375 L 13.9375 -25.609375 C 17.28125 -25.609375 19.863281 -24.832031 21.6875 -23.28125 C 23.519531 -21.738281 24.4375 -19.550781 24.4375 -16.71875 C 24.4375 -14.75 24.03125 -13.0625 23.21875 -11.65625 C 22.40625 -10.25 21.21875 -9.179688 19.65625 -8.453125 Z M 8.59375 -20.828125 L 8.59375 -12.15625 L 13.9375 -12.15625 C 15.550781 -12.15625 16.789062 -12.523438 17.65625 -13.265625 C 18.519531 -14.003906 18.953125 -15.097656 18.953125 -16.546875 C 18.953125 -17.953125 18.519531 -19.015625 17.65625 -19.734375 C 16.789062 -20.460938 15.550781 -20.828125 13.9375 -20.828125 Z M 8.59375 -20.828125 "/></g></g></g><g fill="#000000" fill-opacity="1"><g transform="translate(297.478441, 52.81544)"><g><path d="M 2.8125 0 L 2.8125 -25.609375 L 8.59375 -25.609375 L 8.59375 0 Z M 2.8125 0 "/></g></g></g><g fill="#000000" fill-opacity="1"><g transform="translate(311.74921, 52.81544)"><g><path d="M 13.6875 -25.609375 C 16.957031 -25.609375 19.484375 -24.832031 21.265625 -23.28125 C 23.046875 -21.738281 23.9375 -19.550781 23.9375 -16.71875 C 23.9375 -13.75 23.035156 -11.4375 21.234375 -9.78125 C 19.441406 -8.132812 16.925781 -7.3125 13.6875 -7.3125 L 8.59375 -7.3125 L 8.59375 0 L 2.8125 0 L 2.8125 -25.609375 Z M 13.390625 -12.15625 C 15.023438 -12.15625 16.273438 -12.523438 17.140625 -13.265625 C 18.003906 -14.003906 18.4375 -15.097656 18.4375 -16.546875 C 18.4375 -17.953125 18.003906 -19.015625 17.140625 -19.734375 C 16.273438 -20.460938 15.023438 -20.828125 13.390625 -20.828125 L 8.59375 -20.828125 L 8.59375 -12.15625 Z M 13.390625 -12.15625 "/></g></g></g><g clip-path="url(#1fa214bb08)"><path fill="#00bf63" d="M 216.003906 29.960938 L 216.011719 29.960938 C 216.003906 29.960938 217.230469 29.417969 217.230469 29.417969 C 216.75 29.121094 216.140625 28.824219 215.371094 28.5625 C 215.371094 28.5625 216.585938 28.617188 218.03125 29.066406 L 220.453125 27.992188 C 219.9375 27.632812 219.242188 27.261719 218.304688 26.941406 C 218.304688 26.941406 219.761719 27.011719 221.382812 27.582031 L 223.28125 26.742188 C 222.746094 26.328125 221.980469 25.890625 220.890625 25.515625 C 220.890625 25.515625 222.558594 25.597656 224.3125 26.285156 L 228.386719 24.484375 C 221.980469 21.691406 217.371094 24.90625 214.722656 27.882812 C 216.035156 24.9375 217.15625 19.941406 212.371094 16.097656 L 212.511719 18.203125 C 213.515625 19.140625 214.105469 20.140625 214.105469 20.140625 C 213.53125 19.597656 213.011719 19.242188 212.566406 19.007812 L 212.703125 21.0625 C 213.777344 22.027344 214.410156 23.101562 214.410156 23.101562 C 213.789062 22.515625 213.230469 22.148438 212.761719 21.917969 L 212.890625 23.847656 C 213.816406 24.746094 214.355469 25.664062 214.355469 25.664062 C 213.832031 25.171875 213.359375 24.832031 212.941406 24.601562 L 213.0625 26.453125 C 213.628906 27.109375 213.945312 27.648438 213.945312 27.648438 C 213.644531 27.367188 213.363281 27.136719 213.097656 26.945312 L 213.15625 27.816406 C 211.457031 24.195312 207.90625 19.691406 200.875 20.628906 L 204.296875 23.480469 C 206.171875 23.300781 207.800781 23.679688 207.800781 23.679688 C 206.648438 23.742188 205.792969 23.953125 205.164062 24.203125 L 206.757812 25.535156 C 208.476562 25.429688 209.894531 25.761719 209.894531 25.761719 C 208.90625 25.816406 208.132812 25.980469 207.539062 26.183594 L 209.570312 27.878906 C 211.085938 27.847656 212.265625 28.125 212.265625 28.125 C 211.457031 28.167969 210.789062 28.285156 210.246094 28.441406 C 210.246094 28.441406 211.277344 29.300781 211.269531 29.296875 L 211.277344 29.300781 C 207.644531 27.292969 201.769531 25.570312 196.414062 30.828125 L 199.121094 30.96875 C 200.46875 29.828125 201.835938 29.230469 201.835938 29.230469 C 201.058594 29.878906 200.527344 30.488281 200.160156 31.019531 L 202.800781 31.15625 C 204.195312 29.933594 205.667969 29.289062 205.667969 29.289062 C 204.824219 29.992188 204.269531 30.648438 203.902344 31.214844 L 206.386719 31.339844 C 207.675781 30.292969 208.925781 29.746094 208.925781 29.746094 C 208.21875 30.335938 207.714844 30.894531 207.355469 31.390625 L 209.738281 31.511719 C 210.664062 30.890625 211.398438 30.570312 211.398438 30.570312 C 210.992188 30.90625 210.535156 31.554688 210.535156 31.554688 C 207.121094 31.882812 202.730469 33.464844 201.320312 39.164062 L 203.324219 38.066406 C 203.789062 36.652344 204.503906 35.621094 204.503906 35.621094 C 204.234375 36.429688 204.117188 37.101562 204.09375 37.644531 L 206.046875 36.578125 C 206.503906 35.082031 207.273438 33.96875 207.273438 33.96875 C 206.980469 34.847656 206.875 35.5625 206.859375 36.128906 L 208.699219 35.125 C 209.160156 33.804688 209.816406 32.855469 209.816406 32.855469 C 209.570312 33.59375 209.453125 34.214844 209.414062 34.730469 L 211.179688 33.765625 C 211.566406 32.910156 211.953125 32.355469 211.953125 32.355469 C 211.8125 32.777344 211.710938 33.160156 211.648438 33.507812 L 212.535156 33.023438 C 211.488281 37.617188 211.242188 46.402344 199.078125 51.539062 L 205.652344 58.230469 C 213.816406 48.289062 213.515625 37.902344 213.769531 33.195312 L 215.316406 34.722656 C 215.402344 34.242188 215.449219 33.652344 215.417969 32.945312 C 215.417969 32.945312 215.757812 33.949219 215.859375 35.261719 L 217.496094 36.878906 C 217.625 36.347656 217.699219 35.664062 217.664062 34.804688 C 217.664062 34.804688 218.070312 36.003906 218.125 37.5 L 219.410156 38.769531 C 219.574219 38.203125 219.6875 37.445312 219.640625 36.441406 C 219.640625 36.441406 220.109375 37.820312 220.109375 39.460938 L 222.863281 42.183594 C 223.074219 36.316406 219.289062 33.589844 216.097656 32.332031 L 219.199219 33.050781 C 218.988281 32.472656 218.65625 31.796875 218.140625 31.035156 C 218.140625 31.035156 219.191406 31.910156 220.144531 33.269531 L 222.566406 33.828125 C 222.371094 33.183594 222.015625 32.402344 221.398438 31.492188 C 221.398438 31.492188 222.636719 32.519531 223.640625 34.078125 L 226.214844 34.671875 C 226.011719 34.058594 225.667969 33.328125 225.097656 32.488281 C 225.097656 32.488281 226.246094 33.441406 227.230469 34.90625 L 229.871094 35.519531 C 226.167969 28.992188 220.042969 29.03125 216.003906 29.960938 " fill-opacity="1" fill-rule="nonzero"/></g><path fill="#000000" d="M 210.234375 22.097656 C 210.304688 22.15625 210.375 22.21875 210.445312 22.277344 C 210.875 22.347656 211.300781 22.4375 211.71875 22.542969 L 211.53125 19.730469 C 210.445312 19.511719 209.324219 19.398438 208.175781 19.398438 C 207.152344 19.398438 206.152344 19.488281 205.179688 19.660156 C 207.054688 20.035156 208.746094 20.851562 210.234375 22.097656 " fill-opacity="1" fill-rule="nonzero"/><path fill="#000000" d="M 218.988281 23.328125 C 218.324219 22.769531 217.617188 22.261719 216.871094 21.8125 C 216.886719 21.957031 216.902344 22.101562 216.910156 22.246094 C 216.96875 22.996094 216.9375 23.765625 216.828125 24.550781 C 217.527344 24.0625 218.25 23.65625 218.988281 23.328125 " fill-opacity="1" fill-rule="nonzero"/><path fill="#000000" d="M 224.148438 35.304688 L 222.246094 34.863281 C 222.277344 35.175781 222.296875 35.492188 222.304688 35.808594 C 223.453125 37.570312 224.003906 39.664062 223.949219 42.042969 C 224.617188 40.085938 225.011719 38.128906 225.011719 36.234375 C 225.011719 35.988281 225.007812 35.742188 224.996094 35.5 L 224.148438 35.304688 " fill-opacity="1" fill-rule="nonzero"/><g clip-path="url(#21443a3611)"><path fill="#000000" d="M 221.105469 41.964844 C 219.847656 45.257812 217.613281 48.960938 214.476562 52.933594 C 212.109375 55.921875 209.738281 58.417969 208.175781 59.972656 C 206.601562 58.402344 204.199219 55.878906 201.824219 52.867188 C 196.730469 46.40625 194.039062 40.65625 194.039062 36.234375 C 194.039062 32.457031 195.507812 28.910156 198.179688 26.238281 C 199.421875 24.996094 200.855469 24.011719 202.414062 23.316406 L 200.148438 21.429688 C 194.898438 24.28125 191.335938 29.839844 191.335938 36.234375 C 191.335938 48.585938 208.175781 63.714844 208.175781 63.714844 C 208.175781 63.714844 218.824219 54.148438 223.183594 44.019531 L 221.105469 41.964844 " fill-opacity="1" fill-rule="nonzero"/></g><g clip-path="url(#db11a7798d)"><path fill="#000000" d="M 227.011719 13.34375 C 226.871094 12.949219 225.472656 13.085938 223.777344 13.628906 L 222.363281 12.527344 C 222.757812 12.261719 222.832031 12.023438 222.734375 11.828125 C 222.617188 11.597656 222.300781 11.523438 221.667969 11.847656 C 221.632812 11.863281 221.597656 11.882812 221.5625 11.902344 L 220.058594 10.730469 L 219.023438 11.101562 L 220.300781 12.710938 C 219.890625 13.015625 219.582031 13.296875 219.636719 13.40625 C 219.699219 13.527344 220.179688 13.414062 220.71875 13.238281 L 221.664062 14.429688 C 220.695312 14.828125 219.566406 15.324219 218.59375 15.789062 L 216.75 14.246094 L 216.273438 14.417969 L 217.335938 16.417969 C 216.65625 16.785156 216.226562 17.082031 216.269531 17.210938 C 216.320312 17.34375 216.839844 17.292969 217.597656 17.140625 L 218.261719 19.109375 L 218.738281 18.9375 L 218.96875 16.828125 C 220.015625 16.5625 221.199219 16.226562 222.199219 15.914062 L 222.523438 17.179688 C 222.105469 17.363281 221.789062 17.550781 221.816406 17.660156 C 221.84375 17.769531 222.210938 17.789062 222.671875 17.757812 L 223.183594 19.769531 L 224.222656 19.398438 L 224.273438 17.535156 C 224.308594 17.527344 224.339844 17.519531 224.371094 17.511719 C 225.066406 17.339844 225.253906 17.078125 225.191406 16.828125 C 225.132812 16.59375 224.882812 16.453125 224.296875 16.570312 L 224.335938 15.183594 C 225.988281 14.519531 227.15625 13.734375 227.011719 13.34375 " fill-opacity="1" fill-rule="nonzero"/></g></svg>