<svg xmlns="http://www.w3.org/2000/svg" xmlns:xlink="http://www.w3.org/1999/xlink" width="456" zoomAndPan="magnify" viewBox="0 0 342 85.499998" height="114" preserveAspectRatio="xMidYMid meet" version="1.0"><defs><g/><clipPath id="9fcb6eaf6e"><path d="M 7 7 L 53.933594 7 L 53.933594 66 L 7 66 Z M 7 7 " clip-rule="nonzero"/></clipPath><clipPath id="c6b2817350"><path d="M 0.996094 14 L 45 14 L 45 72.328125 L 0.996094 72.328125 Z M 0.996094 14 " clip-rule="nonzero"/></clipPath></defs><g clip-path="url(#9fcb6eaf6e)"><path fill="#00bf63" d="M 34.792969 26.363281 L 34.800781 26.359375 C 34.792969 26.363281 36.472656 25.621094 36.472656 25.621094 C 35.816406 25.210938 34.984375 24.804688 33.929688 24.441406 C 33.929688 24.441406 35.59375 24.523438 37.574219 25.132812 L 40.890625 23.664062 C 40.183594 23.171875 39.230469 22.664062 37.949219 22.226562 C 37.949219 22.226562 39.941406 22.320312 42.164062 23.101562 L 44.761719 21.953125 C 44.03125 21.386719 42.980469 20.78125 41.488281 20.269531 C 41.488281 20.269531 43.773438 20.378906 46.179688 21.324219 L 51.757812 18.859375 C 42.984375 15.03125 36.667969 19.433594 33.039062 23.515625 C 34.835938 19.476562 36.375 12.632812 29.816406 7.367188 L 30.007812 10.25 C 31.382812 11.535156 32.1875 12.90625 32.1875 12.90625 C 31.40625 12.164062 30.695312 11.675781 30.082031 11.355469 L 30.269531 14.167969 C 31.742188 15.488281 32.609375 16.964844 32.609375 16.964844 C 31.757812 16.160156 30.992188 15.65625 30.347656 15.339844 L 30.527344 17.984375 C 31.796875 19.21875 32.535156 20.472656 32.535156 20.472656 C 31.820312 19.800781 31.167969 19.335938 30.59375 19.015625 L 30.765625 21.554688 C 31.539062 22.453125 31.972656 23.191406 31.972656 23.191406 C 31.5625 22.808594 31.175781 22.488281 30.808594 22.230469 L 30.890625 23.421875 C 28.566406 18.460938 23.699219 12.289062 14.066406 13.578125 L 18.75 17.480469 C 21.324219 17.234375 23.550781 17.757812 23.550781 17.757812 C 21.976562 17.839844 20.800781 18.128906 19.941406 18.472656 L 22.125 20.292969 C 24.476562 20.152344 26.417969 20.609375 26.417969 20.609375 C 25.066406 20.679688 24.007812 20.90625 23.191406 21.183594 L 25.980469 23.507812 C 28.050781 23.464844 29.671875 23.847656 29.671875 23.847656 C 28.5625 23.90625 27.648438 24.066406 26.90625 24.277344 C 26.90625 24.277344 28.316406 25.453125 28.308594 25.449219 L 28.316406 25.453125 C 23.34375 22.707031 15.289062 20.347656 7.953125 27.550781 L 11.664062 27.742188 C 13.511719 26.179688 15.382812 25.359375 15.382812 25.359375 C 14.316406 26.25 13.585938 27.082031 13.085938 27.8125 L 16.703125 28 C 18.613281 26.324219 20.628906 25.441406 20.628906 25.441406 C 19.476562 26.40625 18.714844 27.300781 18.210938 28.078125 L 21.613281 28.253906 C 23.382812 26.820312 25.097656 26.066406 25.097656 26.066406 C 24.128906 26.875 23.4375 27.636719 22.941406 28.320312 L 26.210938 28.488281 C 27.476562 27.636719 28.484375 27.195312 28.484375 27.195312 C 27.929688 27.660156 27.300781 28.542969 27.300781 28.542969 C 22.621094 28.996094 16.605469 31.160156 14.675781 38.96875 L 17.421875 37.46875 C 18.054688 35.53125 19.035156 34.117188 19.035156 34.117188 C 18.664062 35.222656 18.507812 36.144531 18.472656 36.890625 L 21.148438 35.425781 C 21.777344 33.378906 22.832031 31.855469 22.832031 31.855469 C 22.433594 33.054688 22.28125 34.035156 22.265625 34.8125 L 24.78125 33.4375 C 25.414062 31.628906 26.3125 30.328125 26.3125 30.328125 C 25.976562 31.335938 25.816406 32.191406 25.765625 32.898438 L 28.183594 31.574219 C 28.714844 30.40625 29.242188 29.644531 29.242188 29.644531 C 29.046875 30.21875 28.914062 30.746094 28.824219 31.222656 L 30.042969 30.554688 C 28.605469 36.851562 28.269531 48.890625 11.601562 55.925781 L 20.613281 65.09375 C 31.796875 51.472656 31.382812 37.242188 31.730469 30.792969 L 33.847656 32.886719 C 33.96875 32.226562 34.035156 31.421875 33.992188 30.453125 C 33.992188 30.453125 34.457031 31.824219 34.59375 33.621094 L 36.839844 35.839844 C 37.011719 35.109375 37.117188 34.175781 37.066406 33 C 37.066406 33 37.625 34.644531 37.699219 36.691406 L 39.457031 38.429688 C 39.683594 37.65625 39.835938 36.613281 39.777344 35.242188 C 39.777344 35.242188 40.417969 37.128906 40.417969 39.375 L 44.191406 43.105469 C 44.484375 35.070312 39.292969 31.332031 34.917969 29.613281 L 39.171875 30.59375 C 38.882812 29.804688 38.429688 28.878906 37.71875 27.835938 C 37.71875 27.835938 39.160156 29.03125 40.46875 30.894531 L 43.785156 31.660156 C 43.515625 30.777344 43.03125 29.707031 42.1875 28.460938 C 42.1875 28.460938 43.882812 29.863281 45.257812 32 L 48.785156 32.816406 C 48.507812 31.976562 48.03125 30.972656 47.253906 29.828125 C 47.253906 29.828125 48.828125 31.128906 50.175781 33.136719 L 53.792969 33.976562 C 48.722656 25.03125 40.328125 25.085938 34.792969 26.363281 " fill-opacity="1" fill-rule="nonzero"/></g><path fill="#000000" d="M 26.886719 15.585938 C 26.984375 15.667969 27.082031 15.75 27.175781 15.835938 C 27.765625 15.929688 28.347656 16.050781 28.921875 16.199219 L 28.664062 12.34375 C 27.179688 12.042969 25.640625 11.886719 24.066406 11.886719 C 22.667969 11.886719 21.296875 12.011719 19.964844 12.25 C 22.53125 12.761719 24.847656 13.878906 26.886719 15.585938 " fill-opacity="1" fill-rule="nonzero"/><path fill="#000000" d="M 38.878906 17.273438 C 37.972656 16.507812 37 15.8125 35.980469 15.195312 C 36.003906 15.394531 36.023438 15.59375 36.039062 15.792969 C 36.113281 16.820312 36.074219 17.875 35.921875 18.949219 C 36.882812 18.28125 37.871094 17.722656 38.878906 17.273438 " fill-opacity="1" fill-rule="nonzero"/><path fill="#000000" d="M 45.953125 33.683594 L 43.347656 33.078125 C 43.386719 33.507812 43.414062 33.9375 43.425781 34.371094 C 45 36.789062 45.753906 39.65625 45.675781 42.917969 C 46.59375 40.234375 47.136719 37.550781 47.136719 34.957031 C 47.136719 34.621094 47.128906 34.285156 47.113281 33.949219 L 45.953125 33.683594 " fill-opacity="1" fill-rule="nonzero"/><g clip-path="url(#c6b2817350)"><path fill="#000000" d="M 41.785156 42.808594 C 40.058594 47.320312 37 52.394531 32.699219 57.835938 C 29.457031 61.933594 26.207031 65.351562 24.066406 67.484375 C 21.90625 65.332031 18.617188 61.875 15.367188 57.75 C 8.386719 48.898438 4.695312 41.015625 4.695312 34.957031 C 4.695312 29.785156 6.710938 24.917969 10.367188 21.261719 C 12.070312 19.558594 14.035156 18.210938 16.171875 17.257812 L 13.066406 14.671875 C 5.875 18.578125 0.996094 26.199219 0.996094 34.957031 C 0.996094 51.882812 24.066406 72.609375 24.066406 72.609375 C 24.066406 72.609375 38.65625 59.5 44.632812 45.621094 L 41.785156 42.808594 " fill-opacity="1" fill-rule="nonzero"/></g><path fill="#000000" d="M 49.878906 3.589844 C 49.683594 3.054688 47.769531 3.238281 45.445312 3.984375 L 43.503906 2.472656 C 44.050781 2.113281 44.148438 1.78125 44.011719 1.519531 C 43.851562 1.203125 43.421875 1.097656 42.550781 1.542969 C 42.507812 1.566406 42.460938 1.589844 42.410156 1.617188 L 40.351562 0.0078125 L 38.929688 0.523438 L 40.679688 2.726562 C 40.121094 3.140625 39.695312 3.53125 39.773438 3.679688 C 39.855469 3.84375 40.511719 3.691406 41.25 3.445312 L 42.546875 5.082031 C 41.222656 5.628906 39.675781 6.304688 38.34375 6.941406 L 35.816406 4.832031 L 35.164062 5.066406 L 36.621094 7.804688 C 35.6875 8.308594 35.097656 8.714844 35.160156 8.890625 C 35.226562 9.070312 35.9375 9.003906 36.976562 8.796875 L 37.886719 11.492188 L 38.539062 11.253906 L 38.855469 8.367188 C 40.289062 8.003906 41.910156 7.542969 43.28125 7.117188 L 43.722656 8.847656 C 43.152344 9.101562 42.722656 9.355469 42.757812 9.507812 C 42.796875 9.660156 43.296875 9.683594 43.925781 9.640625 L 44.632812 12.398438 L 46.050781 11.886719 L 46.121094 9.335938 C 46.171875 9.324219 46.21875 9.3125 46.261719 9.300781 C 47.207031 9.066406 47.464844 8.707031 47.378906 8.363281 C 47.304688 8.046875 46.957031 7.855469 46.15625 8.011719 L 46.210938 6.113281 C 48.476562 5.203125 50.070312 4.128906 49.878906 3.589844 " fill-opacity="1" fill-rule="nonzero"/><g fill="#000000" fill-opacity="1"><g transform="translate(63.055541, 55.416432)"><g><path d="M 19.75 -18.53125 C 18.425781 -19.34375 17.023438 -19.984375 15.546875 -20.453125 C 14.066406 -20.929688 12.800781 -21.171875 11.75 -21.171875 C 10.738281 -21.171875 9.941406 -20.988281 9.359375 -20.625 C 8.773438 -20.257812 8.484375 -19.722656 8.484375 -19.015625 C 8.484375 -18.109375 8.90625 -17.414062 9.75 -16.9375 C 10.59375 -16.457031 11.894531 -15.960938 13.65625 -15.453125 C 15.414062 -14.941406 16.863281 -14.425781 18 -13.90625 C 19.132812 -13.394531 20.101562 -12.625 20.90625 -11.59375 C 21.71875 -10.570312 22.125 -9.21875 22.125 -7.53125 C 22.125 -5.882812 21.691406 -4.46875 20.828125 -3.28125 C 19.960938 -2.09375 18.769531 -1.191406 17.25 -0.578125 C 15.726562 0.0234375 14.003906 0.328125 12.078125 0.328125 C 9.992188 0.328125 7.945312 -0.0351562 5.9375 -0.765625 C 3.9375 -1.503906 2.203125 -2.507812 0.734375 -3.78125 L 3.046875 -8.515625 C 4.335938 -7.335938 5.828125 -6.394531 7.515625 -5.6875 C 9.210938 -4.976562 10.757812 -4.625 12.15625 -4.625 C 13.351562 -4.625 14.285156 -4.84375 14.953125 -5.28125 C 15.628906 -5.726562 15.96875 -6.363281 15.96875 -7.1875 C 15.96875 -7.851562 15.738281 -8.398438 15.28125 -8.828125 C 14.832031 -9.253906 14.257812 -9.601562 13.5625 -9.875 C 12.863281 -10.144531 11.90625 -10.453125 10.6875 -10.796875 C 8.914062 -11.285156 7.472656 -11.773438 6.359375 -12.265625 C 5.253906 -12.753906 4.296875 -13.5 3.484375 -14.5 C 2.679688 -15.5 2.28125 -16.832031 2.28125 -18.5 C 2.28125 -20.039062 2.691406 -21.390625 3.515625 -22.546875 C 4.347656 -23.710938 5.507812 -24.609375 7 -25.234375 C 8.5 -25.859375 10.238281 -26.171875 12.21875 -26.171875 C 13.976562 -26.171875 15.710938 -25.910156 17.421875 -25.390625 C 19.140625 -24.878906 20.660156 -24.195312 21.984375 -23.34375 Z M 19.75 -18.53125 "/></g></g></g><g fill="#000000" fill-opacity="1"><g transform="translate(89.263805, 55.416432)"><g><path d="M 2.828125 0 L 2.828125 -25.6875 L 9.28125 -25.6875 L 17.28125 -9.90625 L 25.21875 -25.6875 L 31.640625 -25.6875 L 31.640625 0 L 26.421875 0 L 26.421875 -17.359375 L 19.125 -2.609375 L 15.375 -2.609375 L 8.03125 -17.359375 L 8.03125 0 Z M 2.828125 0 "/></g></g></g><g fill="#000000" fill-opacity="1"><g transform="translate(126.593899, 55.416432)"><g><path d="M 28 0 L 21.796875 0 L 19.78125 -4.984375 L 7.890625 -4.984375 L 5.875 0 L -0.109375 0 L 11.046875 -25.6875 L 17.03125 -25.6875 Z M 13.875 -19.640625 L 9.796875 -9.65625 L 17.90625 -9.65625 Z M 13.875 -19.640625 "/></g></g></g><g fill="#000000" fill-opacity="1"><g transform="translate(157.280261, 55.416432)"><g><path d="M 25.171875 0 L 18.609375 0 L 14.53125 -7.34375 L 8.625 -7.34375 L 8.625 0 L 2.828125 0 L 2.828125 -25.6875 L 13.984375 -25.6875 C 17.335938 -25.6875 19.929688 -24.910156 21.765625 -23.359375 C 23.597656 -21.804688 24.515625 -19.609375 24.515625 -16.765625 C 24.515625 -14.785156 24.101562 -13.09375 23.28125 -11.6875 C 22.46875 -10.28125 21.273438 -9.210938 19.703125 -8.484375 Z M 8.625 -20.890625 L 8.625 -12.1875 L 13.984375 -12.1875 C 15.597656 -12.1875 16.835938 -12.554688 17.703125 -13.296875 C 18.578125 -14.046875 19.015625 -15.144531 19.015625 -16.59375 C 19.015625 -18.007812 18.578125 -19.078125 17.703125 -19.796875 C 16.835938 -20.523438 15.597656 -20.890625 13.984375 -20.890625 Z M 8.625 -20.890625 "/></g></g></g><g fill="#000000" fill-opacity="1"><g transform="translate(186.681923, 55.416432)"><g><path d="M 0.296875 -20.78125 L 0.296875 -25.6875 L 21.765625 -25.6875 L 21.765625 -20.78125 L 13.90625 -20.78125 L 13.90625 0 L 8.109375 0 L 8.109375 -20.78125 Z M 0.296875 -20.78125 "/></g></g></g><g fill="#000000" fill-opacity="1"><g transform="translate(211.568787, 55.416432)"><g/></g></g><g fill="#000000" fill-opacity="1"><g transform="translate(224.306056, 55.416432)"><g><path d="M 0.296875 -20.78125 L 0.296875 -25.6875 L 21.765625 -25.6875 L 21.765625 -20.78125 L 13.90625 -20.78125 L 13.90625 0 L 8.109375 0 L 8.109375 -20.78125 Z M 0.296875 -20.78125 "/></g></g></g><g fill="#000000" fill-opacity="1"><g transform="translate(249.192921, 55.416432)"><g><path d="M 25.171875 0 L 18.609375 0 L 14.53125 -7.34375 L 8.625 -7.34375 L 8.625 0 L 2.828125 0 L 2.828125 -25.6875 L 13.984375 -25.6875 C 17.335938 -25.6875 19.929688 -24.910156 21.765625 -23.359375 C 23.597656 -21.804688 24.515625 -19.609375 24.515625 -16.765625 C 24.515625 -14.785156 24.101562 -13.09375 23.28125 -11.6875 C 22.46875 -10.28125 21.273438 -9.210938 19.703125 -8.484375 Z M 8.625 -20.890625 L 8.625 -12.1875 L 13.984375 -12.1875 C 15.597656 -12.1875 16.835938 -12.554688 17.703125 -13.296875 C 18.578125 -14.046875 19.015625 -15.144531 19.015625 -16.59375 C 19.015625 -18.007812 18.578125 -19.078125 17.703125 -19.796875 C 16.835938 -20.523438 15.597656 -20.890625 13.984375 -20.890625 Z M 8.625 -20.890625 "/></g></g></g><g fill="#000000" fill-opacity="1"><g transform="translate(278.594583, 55.416432)"><g><path d="M 2.828125 0 L 2.828125 -25.6875 L 8.625 -25.6875 L 8.625 0 Z M 2.828125 0 "/></g></g></g><g fill="#000000" fill-opacity="1"><g transform="translate(292.910201, 55.416432)"><g><path d="M 13.734375 -25.6875 C 17.003906 -25.6875 19.53125 -24.910156 21.3125 -23.359375 C 23.101562 -21.804688 24 -19.609375 24 -16.765625 C 24 -13.785156 23.097656 -11.46875 21.296875 -9.8125 C 19.503906 -8.164062 16.984375 -7.34375 13.734375 -7.34375 L 8.625 -7.34375 L 8.625 0 L 2.828125 0 L 2.828125 -25.6875 Z M 13.4375 -12.1875 C 15.070312 -12.1875 16.320312 -12.554688 17.1875 -13.296875 C 18.0625 -14.046875 18.5 -15.144531 18.5 -16.59375 C 18.5 -18.007812 18.0625 -19.078125 17.1875 -19.796875 C 16.320312 -20.523438 15.070312 -20.890625 13.4375 -20.890625 L 8.625 -20.890625 L 8.625 -12.1875 Z M 13.4375 -12.1875 "/></g></g></g></svg>